<svg xmlns="http://www.w3.org/2000/svg" viewBox="0 0 256 256">
  <defs>
    <clipPath id="badge">
      <rect x="20" y="20" width="216" height="216" rx="40" />
    </clipPath>
  </defs>

  <g clip-path="url(#badge)">
    <polygon points="20,20 236,20 20,236" fill="oklch(0.6017 0.094 178.84)" />
    <polygon points="236,20 236,236 20,236" fill="oklch(0.6961 0.16 36.34)" />
    <line x1="20" y1="236" x2="236" y2="20"
          stroke="oklch(0.365 0.0394 226.32)" stroke-width="8" />
  </g>

  <rect x="20" y="20" width="216" height="216" rx="40"
        fill="none" stroke="oklch(0.365 0.0394 226.32)" stroke-width="8" />

  <g transform="translate(44, 44) scale(3)"
     fill="oklch(0.8126 0.1281 87.66)" stroke="oklch(0.365 0.0394 226.32)" stroke-width="2"
     stroke-linecap="round" stroke-linejoin="round">
    <path d="M15 5.88 14 10h5.83a2 2 0 0 1 1.92 2.56l-2.33 8A2 2 0 0 1 17.5 22H4a2 2 0 0 1-2-2v-8a2 2 0 0 1 2-2h2.76a2 2 0 0 0 1.79-1.11L12 2a3.13 3.13 0 0 1 3 3.88Z" />
    <path d="M7 10v12" fill="none" />
  </g>

  <g transform="translate(140, 140) scale(3)"
     fill="oklch(0.8126 0.1281 87.66)" stroke="oklch(0.365 0.0394 226.32)" stroke-width="2"
     stroke-linecap="round" stroke-linejoin="round">
    <path d="M9 18.12 10 14H4.17a2 2 0 0 1-1.92-2.56l2.33-8A2 2 0 0 1 6.5 2H20a2 2 0 0 1 2 2v8a2 2 0 0 1-2 2h-2.76a2 2 0 0 0-1.79 1.11L12 22a3.13 3.13 0 0 1-3-3.88Z" />
    <path d="M17 14V2" fill="none" />
  </g>
</svg>
